Genre: Biography | Drama
Language:English
 
http://www.imdb.com/title/tt1007029/

Source:French Video/INSPIRA Thanks!

Format : AVI
Format/Info : Audio Video Interleave
File size : 583 MiB
Duration : 1h 40mn
Overall bit rate : 815 Kbps

Video
ID : 0
Format : MPEG-4 Visual
Format profile : Advanced Simple@L5
Format settings, BVOP : Yes
Format settings, QPel : No
Format settings, GMC : No warppoints
Format settings, Matrix : Default (H.263)
Codec ID : XVID
Codec ID/Hint : XviD
Duration : 1h 40mn
Bit rate : 645 Kbps
Width : 640 pixels
Height : 272 pixels
Display aspect ratio : 2.35:1
Frame rate : 25.000 fps
Color space : YUV
Chroma subsampling : 4:2:0
Bit depth : 8 bits
Scan type : Progressive
Bits/(Pixel*Frame) : 0.148
Stream size : 462 MiB (79%)
Writing library : XviD 1.2.1 (UTC 2008-12-04)

Audio
ID : 1
Format : AC-3
Format/Info : Audio Coding 3
Mode extension : CM (complete main)
Codec ID : 2000
Duration : 1h 40mn
Bit rate mode : Constant
Bit rate : 160 Kbps
Channel(s) : 2 channels
Channel positions : Front: L R
Sampling rate : 48.0 KHz
Bit depth : 16 bits
Stream size : 115 MiB (20%)
Alignment : Aligned on interleaves
Interleave, duration : 40 ms (1.00 video frame)
Interleave, preload duration : 512 ms


Plot:
A look at the life of Margaret Thatcher, the former Prime Minister of the United Kingdom, with a focus on the price she paid for power.
 
http://img521.imageshack.us/img521/9854/vlcsnap2012011811h32m58.png 
http://img848.imageshack.us/img848/2567/vlcsnap2012011811h33m10.png 
http://img16.imageshack.us/img16/2203/vlcsnap2012011811h33m43.png 
http://img442.imageshack.us/img442/1328/vlcsnap2012011811h35m19.png 
http://img825.imageshack.us/img825/466/vlcsnap2012011811h35m36.png
